<svg xmlns="http://www.w3.org/2000/svg" viewBox="0 0 800 600" width="800" height="600" shape-rendering="crispEdges">
  <defs>
    <linearGradient id="skyGrad" x1="0" y1="0" x2="0" y2="1">
      <stop offset="0%" stop-color="#4CBDF1"/>
      <stop offset="100%" stop-color="#A5DEFC"/>
    </linearGradient>
    <pattern id="grass" width="40" height="40" patternUnits="userSpaceOnUse">
      <rect width="40" height="40" fill="#6bc948"/>
      <path d="M 10 10 h 4 v 4 h -4 Z M 30 25 h 4 v 4 h -4 Z M 20 8 h 4 v 4 h -4 Z" fill="#58a83d"/>
    </pattern>
    <pattern id="dirt" width="80" height="60" patternUnits="userSpaceOnUse">
      <rect width="80" height="60" fill="#966C3E"/>
      <path d="M 10 10 h 8 v 8 h -8 Z M 50 30 h 8 v 8 h -8 Z M 60 15 h 8 v 8 h -8 Z M 20 40 h 8 v 8 h -8 Z" fill="#7A5530"/>
      <path d="M 70 45 h 8 v 8 h -8 Z M 30 20 h 8 v 8 h -8 Z" fill="#AF8252"/>
    </pattern>
  </defs>

  <!-- Sky -->
  <rect width="800" height="600" fill="url(#skyGrad)"/>

  <!-- Back Clouds -->
  <path d="M 0 330 H 60 V 300 H 140 V 270 H 220 V 290 H 280 V 320 H 360 V 340 H 420 V 310 H 500 V 280 H 580 V 300 H 660 V 330 H 720 V 350 H 760 V 330 H 800 V 600 H 0 Z" fill="#90D1F6"/>

  <!-- Front Clouds -->
  <path d="M 0 400 H 80 V 370 H 180 V 340 H 280 V 360 H 320 V 390 H 420 V 410 H 520 V 380 H 600 V 350 H 680 V 370 H 760 V 400 H 800 V 600 H 0 Z" fill="#FFFFFF" opacity="0.95"/>
           
  <!-- Ground: Grass -->
  <rect x="0" y="480" width="800" height="120" fill="url(#grass)"/>
  
  <!-- Ground: Dirt Ridge -->
  <path d="M 0 520 H 40 V 510 H 80 V 525 H 120 V 515 H 160 V 530 H 200 V 520 H 240 V 510 H 280 V 520 H 320 V 510 H 360 V 525 H 400 V 515 H 440 V 530 H 480 V 520 H 520 V 510 H 560 V 520 H 600 V 510 H 640 V 525 H 680 V 515 H 720 V 530 H 760 V 520 H 800 V 600 H 0 Z" fill="url(#dirt)"/>
</svg>
